<?xml version="1.0" encoding="utf-8"?>
<!-- Svg Vector Icons : http://www.onlinewebfonts.com/icon -->
<!DOCTYPE svg PUBLIC "-//W3C//DTD SVG 1.1//EN" "http://www.w3.org/Graphics/SVG/1.1/DTD/svg11.dtd">
<svg version="1.1" 
    xmlns="http://www.w3.org/2000/svg" 
    xmlns:xlink="http://www.w3.org/1999/xlink" x="0px" y="0px" viewBox="0 0 1000 1000" enable-background="new 0 0 1000 1000" xml:space="preserve">
    <metadata> Svg Vector Icons : http://www.onlinewebfonts.com/icon </metadata>
    <g>
        <g transform="translate(0.000000,511.000000) scale(0.100000,-0.100000)">
            <path d="M4102.8,4637.5c-1484.5-127.8-2585.6-402.4-3297.9-818.4c-263.7-155-557.4-435-641.6-611.7c-87-182.1-84.3-416,8.2-606.3c95.2-190.3,138.7-225.7,203.9-165.8c49,43.5,138.7-29.9,1984.7-1576.9C4214.3-696.8,4293.1-767.5,4293.1-854.5v-92.4h704.2h706.9l8.2,97.9c8.1,92.4,100.6,174,1938.5,1710.1c1797.1,1503.5,1933,1612.2,1976.6,1571.5c62.5-57.1,108.8-19,201.2,168.6c92.5,190.3,95.2,413.3,8.2,600.8c-84.3,182.2-372.5,459.5-641.6,617.2c-600.9,353.4-1601.4,633.5-2740.5,766.7C6092.9,4629.3,4431.8,4664.6,4102.8,4637.5z M5951.6,3579.8c8.1-5.4-68-908.1-168.6-2003.7S5600.8-457.5,5598.1-503.8v-89.7H5000h-598.1v89.7c-2.7,46.2-84.3,984.2-187.6,2079.9c-182.2,1979.3-182.2,1992.9-127.8,2003.7C4230.6,3612.5,5899.9,3612.5,5951.6,3579.8z M3966.9,3536.3c0-16.3,78.8-902.6,176.7-1973.8C4244.2,494,4320.3-386.9,4314.9-389.6c-10.9-10.9-1190.8,3855.2-1180,3866.1c10.9,13.6,595.4,84.3,717.8,87C3917.9,3566.3,3966.9,3552.7,3966.9,3536.3z M6506.2,3525.5c193-21.7,356.2-43.5,358.9-48.9c5.4-2.7-261-880.9-587.2-1949.4c-329-1068.5-595.4-1930.3-598.1-1914c0,16.3,78.8,902.6,176.7,1968.4c97.9,1065.8,176.7,1949.4,176.7,1963C6033.1,3574.4,6103.8,3571.7,6506.2,3525.5z M3610.7,1644.1c304.5-1000.5,570.9-1870.5,592.7-1938.5c19-65.3,24.5-108.8,13.6-95.2c-35.4,40.8-1992.9,3689.4-1984.7,3697.6c16.3,13.6,690.6,146.8,755.8,146.8C3056.1,3457.5,3066.9,3424.9,3610.7,1644.1z M7400.7,3386.8c206.6-40.8,369.8-84.3,367-95.2C7746,3237.3,5777.6-403.2,5772.1-395c-2.7,2.7,258.3,870,581.8,1930.3c440.4,1438.3,598.1,1922.2,630.8,1922.2C7006.5,3457.5,7194.1,3424.9,7400.7,3386.8z M3164.8,1407.5c546.5-1014.1,992.4-1848.8,992.4-1856.9c0-19-2843.9,3395.8-2857.5,3431.1c-19,43.5,810.2,323.5,851,288.2C2161.6,3259,2618.3,2421.6,3164.8,1407.5z M8542.6,3071.4c89.7-35.3,157.7-73.4,155-89.7c-8.1-32.6-2854.7-3452.9-2854.7-3428.4c0,16.3,1905.9,3569.8,1973.8,3678.5l35.4,57.1l266.4-78.8C8265.3,3166.6,8455.6,3104.1,8542.6,3071.4z M2612.9,1279.8C3379.6,360.8,4026.7-416.8,4048.4-446.7c38.1-48.9,38.1-48.9-13.6-8.2C3086,333.6,497.7,2516.8,492.3,2533.1c-16.3,43.5,647.1,445.9,706.9,426.9C1210,2957.3,1846.2,2201.4,2612.9,1279.8z M9004.8,2870.2c225.7-114.2,508.4-301.8,508.4-334.4c0-13.6-780.3-677-1731.9-1473.6C6827,268.4,6016.8-411.3,5981.5-441.3l-68-57.1l54.4,70.7c84.3,108.8,2824.8,3395.8,2833,3395.8C8803.6,2968.1,8896,2924.6,9004.8,2870.2z"/>
            <path d="M4352.9-1044.8c-57.1-38-59.8-59.8-59.8-386v-345.3l217.5-217.5l220.2-217.5l-8.2-407.8c-8.1-394.2-13.6-418.7-125.1-766.7c-103.3-329-114.2-383.3-114.2-647.1c0-326.3,21.7-394.2,130.5-394.2c125.1,0,141.4,40.8,141.4,348c0,225.7,13.6,329,70.7,511.1c65.2,214.8,73.4,228.4,144.1,228.4c62.5,0,84.3-21.7,146.8-149.5c65.3-133.2,73.4-182.2,73.4-416c0-307.2,38-394.2,157.7-380.6c114.2,13.6,144.1,106,136,416c-8.2,250.1-16.3,288.2-111.5,481.2l-100.6,209.3v484v483.9l217.5,217.5l217.5,217.5v345.3c0,339.8,0,348-68,391.5c-62.5,40.8-73.4,40.8-135.9,0c-65.3-43.5-68-54.4-68-337.1v-293.7l-157.7-155c-144.1-141.4-165.9-155-277.3-155c-111.5,0-133.2,13.6-277.3,155l-157.7,155v280.1c0,244.7-8.2,288.2-54.4,334.4C4445.4-990.4,4431.8-990.4,4352.9-1044.8z"/>
            <path d="M4902.1-1311.3c-187.6-81.6-231.1-280-95.2-429.6c65.2-73.4,97.9-89.7,193-89.7s127.8,16.3,193,89.7c135.9,152.2,89.7,350.7-100.6,429.6C4986.4-1267.7,5005.4-1267.7,4902.1-1311.3z"/>
        </g>
    </g>
</svg>